# xmcd
#
# Track frame offsets:
#	150
#	21034
#	43631
#	64454
#	83293
#	105204
#	131914
#	148153
#	169312
#	184100
#	212989
#	228305
#	239580
#	267296
#
# Disc length: 3986 seconds
#
# Revision: 1
# Processed by: cddbd v1.5.2PL0 Copyright (c) Steve Scherf et al.
# Submitted via: audiograbber 1.83.01
#
DISCID=c70f900e
DTITLE=Drummond. Pat - The Age of Dissent
DYEAR=1900
DGENRE=Country
TTITLE0=Keepers of the Flame
TTITLE1=Who is That Refugee
TTITLE2=Exiles on the Glory Road
TTITLE3=10,000 Miles away (Until It's Happening to You)
TTITLE4=What Goes Around, Comes Around
TTITLE5=The Cod That Ate the Moon
TTITLE6=Who Are These People (Out of Eden)
TTITLE7=The Quality of Light
TTITLE8=Marilyn Monroe Was a Size 14
TTITLE9=Namatjira
TTITLE10=The Light
TTITLE11=Trust of Strangers (The Fear Pack/Send it Back)
TTITLE12=Money to be Made
TTITLE13=Data Track
EXTD=
EXTT0=
EXTT1=
EXTT2=
EXTT3=
EXTT4=
EXTT5=
EXTT6=
EXTT7=
EXTT8=
EXTT9=
EXTT10=
EXTT11=
EXTT12=
EXTT13=
PLAYORDER=
